<?xml version="1.0" encoding="UTF-8"?>
<svg id="Layer_2" xmlns="http://www.w3.org/2000/svg" version="1.1" viewBox="0 0 1082.2 476">
  <!-- Generator: Adobe Illustrator 30.1.0, SVG Export Plug-In . SVG Version: 2.1.1 Build 136)  -->
  <defs>
    <style>
      .st0 {
        fill: none;
        stroke: #070707;
        stroke-miterlimit: 10;
        stroke-width: 33.5px;
      }

      .st1 {
        fill: #56cced;
      }

      .st2 {
        fill: #e6e75b;
      }

      .st3 {
        fill: #e25f5d;
      }

      .st4 {
        fill: #070707;
      }

      .st5 {
        fill: #d94c67;
      }
    </style>
  </defs>
  <g>
    <path d="M762.7,245.1c0,44.5-13.1,86-35.7,120.7-11,1.6-22.3,3.1-34,4.5-44.9,5.3-94.6,8.7-149.3,9.3-.9,0-1.8,0-2.8,0-53.9.5-103.6-1.9-149.1-6.3-11.7-1.1-23-2.4-34.1-3.7-24.1-35.5-38.3-78.3-38.3-124.5s1.9-33.4,5.5-49.3c8.8-1.4,17.6-2.8,26.6-4.2,30.5-4.6,62-8.5,94.1-11.6,34.5-3.3,69.7-5.5,105-6.3,48.9-1.1,96.1,1.2,140.6,5.5,12.5,1.2,24.7,2.6,36.8,4.1,9.1,1.1,18.1,2.4,26.9,3.7,5,18.5,7.7,38,7.7,58Z"/>
    <path class="st3" d="M540.9,379.6c-53.9.5-103.6-1.9-149.1-6.3-6.4-7.5-12.2-15.5-17.5-23.9l66-35.2c18.8,38.5,55,65.3,100.5,65.3Z"/>
    <path class="st3" d="M733.3,287.8c-6.8,30.8-20.9,59-40.3,82.5-44.9,5.3-94.6,8.7-149.3,9.3,57.1-1.3,103.6-44.1,110.9-99.5l78.8,7.7Z"/>
    <path class="st2" d="M440.4,314.3l-66,35.2c-13.1-20.4-22.1-43.2-26.5-68l79.8-8.4c2,14.7,6.4,28.5,12.7,41.2Z"/>
    <path class="st1" d="M426.7,265c.3,2.7.7,5.4,1,8l-79.8,8.4c-2.7-11.7-3.7-23.8-3.7-36.2,0-18.6,2.6-36.5,7.4-53.6,30.5-4.6,62-8.5,94.1-11.6-21.3,35.9-20.5,70.4-19.1,84.9Z"/>
    <path class="st5" d="M738,245.3c0,14.8-1.7,28.8-4.7,42.6l-78.8-7.7c.7-5,1-10.1,1-15.1,0-15.8-3-30.8-9.1-44.6,0,0,27.9-9.9,44.8-41.2,12.5,1.2,24.7,2.6,36.8,4.1,6.4,19.4,9.9,40.1,9.9,61.8Z"/>
  </g>
  <path class="st0" d="M37.9,273.2s252.6-88.5,519-94.3c266.4-5.8,492.8,85.6,492.8,85.6,0,0-146,116.8-492.5,119.7-346.5,2.9-519.3-111-519.3-111Z"/>
  <path class="st4" d="M1041.4,263.6c-.5,4.1,2.8,7.3,1.7,6,0,0-.1-.2-.1-.2l-.3-.3s-.6-.7-.6-.7c-59.4-61.3-148.7-99.3-230.6-119.8-210.7-53.8-562.1-17.6-738.6,114.8-8.3,6.3-16.4,12.9-23.8,20.3,0,0-3.7-23.6-3.7-23.6l3.2,1.7c8.3,4.3,16.6,8.3,25.1,12.1,188.3,82.7,398.7,108,602.8,92.7,120.6-10.3,250.8-36.2,355.2-99.7,4.1-2.6,8.2-5.4,12.1-8.3,0,0,.2-.1.2-.1,0,0,.4-.3-.1.1-1.4,1.1-2.4,3.4-2.4,5.1h0ZM1058.1,265.3c-.3,2.4-1.9,4.9-3.9,6.4,0,0-.9.7-.9.7l-1.7,1.3c-7.8,6-16.1,11.5-24.5,16.6-105.2,62.5-227.7,89.3-348.3,101.6-214.1,19.2-436.6-6.7-632.9-97.6-10.9-5.2-22.4-11.7-32.7-17.3,0,0,13.7-14.2,13.7-14.2,8.5-8.7,18.1-16.4,27.7-23.8,102.9-75.3,229.4-110.5,353.9-128.8,157.9-21.3,323.8-20.4,474.5,36.8,59,22.9,115.9,54.2,161.3,98.8,3.6,3.6,7.2,7.5,10.6,11.4,0,0,.7.9.7.9,0,0,.4.5.4.5,0,0,.2.2.2.2-1-1.2,2.4,2.1,2,6.4h0Z"/>
  <path d="M1041.5,263.2c-.9,2.7,1.9,7,1.1,5.7v-.2c-.1,0-.4-.4-.4-.4,0,0-.6-.8-.6-.8,0,0-1.2-1.7-1.2-1.7-55.9-71.4-136.9-120.2-221.7-149.8-131.5-45.3-275.1-44-410.8-19.7-112.3,21-223.5,63.7-311.2,138.1-16.8,14.5-32.9,30-46.3,47.7,0,0-4.2-21.5-4.2-21.5.8.5,2.2,1.4,3,1.8,7.9,4.7,16,8.9,24.3,13,245.9,119.9,703.1,135.7,944.5-.2,8.9-5.1,17.6-10.5,25.8-16.6,0,0,.2-.1.2-.1,0,0,.4-.3,0,0-1.3,1.1-2.3,3-2.4,4.7h0ZM1058,265.8c-.4,2.3-2,4.6-3.9,5.9,0,0-.9.7-.9.7-3.9,3.1-8,6-12.1,8.8-236.6,155.2-695.5,144.8-950.6,35.3-19.4-8.3-38.7-17.4-57-28.1-9.5-5.8-9.7-6-17.5-10.8,0,0,9.3-13.1,9.3-13.1,7.4-10.2,16-19.5,24.8-28.5,72.7-72.6,167.4-119.5,265.3-148,172-47.9,378.6-53.4,544.4,19.1,71.1,31.3,137.4,76.7,186.1,137.8,3.3,4.2,6.5,8.5,9.4,13,0,0,.7,1,.7,1,0,0,.3.5.3.5s.2.3.2.3c-.6-1.2,2.2,3.2,1.4,6.1h0Z"/>
  <path d="M14.3,273.9c0-1.4.3-3,.9-4.4.2-.6.9-1.7.9-1.6,0,0,.2-.3.2-.3,0,0,.7-1.1.7-1.1,13.6-20.8,29.8-39.9,46.7-58C147.1,120.4,257.3,59.1,374.3,28.1c166.3-43.6,351.8-38.2,504.6,46.4,67.8,37.3,128.3,88.3,175.2,150,7.9,10.5,15.6,21.5,22.2,32.9,0,0,4.8,8.2,4.8,8.2-8.9,13.2-19.3,25.4-30.3,36.7-77,78.9-179.9,128.9-286.4,153.3-117.9,26.9-240.8,22.8-359.5,2.8-131.1-22.8-267.3-71.5-368.6-160.3-5.5-5-11.4-10.5-16.5-16,0,0-1.6-1.7-1.6-1.7,0,0-.8-.9-.8-.9,0,0-.2-.2-.2-.2,0,0,0,0-.7-.8-1.1-1.4-1.8-3.2-2-4.7h0ZM31,272.5c0-2-.6-3.2-1.6-4.4,0,0,.2.2.2.2,4.6,4.8,9.8,9.5,14.8,13.9,29.8,25.7,63.2,47.1,97.9,65.6,41.3,21.9,85,39.8,129.6,53.7,75.4,23.8,154.3,37,233.2,42.7,64.8,4.9,130.4,3.5,194.7-5.7,8.9-1.6,23.4-3.7,32.3-5.6,7.7-1.7,17.9-3.5,25.6-5.5,4.5-1.2,20.7-4.9,25.3-6.5,4-1.2,12.7-3.6,16.7-4.8,7.2-2.1,18-6,24.8-8.2,83.8-30.1,163.4-77.1,221.2-145.5,1.8-2,3.2-4.1,4.8-6.2,0,0-.8,16.1-.8,16.1-44-71.1-112.6-131-185.3-171.5-75-41.7-159.7-64.7-245.2-70.1-86.1-5.5-173.2,4.2-256.4,26.8-11.6,3.4-23.9,6.9-35.3,11,0,0-17.5,6-17.5,6-2.8,1-19,7.4-21.6,8.4-92.5,37.8-178.1,95.9-242.2,173-5,6.3-11.3,14.2-15.8,20.9,0,0-.2.2-.2.2.7-.9,1.2-3.2.8-4.5h0Z"/>
</svg>