<?xml version="1.0" encoding="UTF-8"?>
<svg id="Layer_2" xmlns="http://www.w3.org/2000/svg" version="1.1" viewBox="0 0 1058.8 695.3">
  <!-- Generator: Adobe Illustrator 30.1.0, SVG Export Plug-In . SVG Version: 2.1.1 Build 136)  -->
  <defs>
    <style>
      .st0 {
        stroke-miterlimit: 10;
        stroke-width: 33.5px;
      }

      .st0, .st1 {
        fill: none;
        stroke: #070707;
      }

      .st2 {
        fill: #56cced;
      }

      .st3 {
        fill: #e6e75b;
      }

      .st4 {
        fill: #e25f5d;
      }

      .st1 {
        stroke-linecap: round;
        stroke-linejoin: round;
        stroke-width: 16.8px;
      }

      .st5 {
        fill: #d94c67;
      }
    </style>
  </defs>
  <g>
    <path d="M751,381.9c0,112.8-84.2,205.8-193.2,219.8-9.3,1.2-18.8,1.8-28.4,1.8s-15.6-.4-23.3-1.2h0c-111.4-11.7-198.3-105.9-198.3-220.4s21.4-108.6,56.5-147.8c16.4-4.5,33.2-8.6,50.2-12.1,37.2-7.6,75.8-12.5,114.9-13.3,34-.7,67.6,1.8,100.3,6.7,19.6,3,38.9,6.8,57.8,11.3,39.2,40,63.5,94.8,63.5,155.2Z"/>
    <path class="st4" d="M721.6,424.6c-19.4,88.1-98.2,154.2-192.4,154.2s-132-36.9-166.5-92.5l66-35.2c18.8,38.5,55,65.3,100.5,65.3s106.2-43.2,113.6-99.5l78.8,7.7Z"/>
    <path class="st3" d="M428.7,451.1l-66,35.2c-13.1-20.4-22.1-43.2-26.5-68l79.8-8.4c2,14.7,6.4,28.5,12.7,41.2Z"/>
    <path class="st2" d="M415,401.8c.3,2.7.7,5.4,1,8l-79.8,8.4c-2.7-11.7-3.7-23.8-3.7-36.2,0-66,32.3-124.3,81.9-160.1,37.2-7.6,75.8-12.5,114.9-13.3,34-.7,67.6,1.8,100.3,6.7-218.1,31-217.7,155.1-214.7,186.5Z"/>
    <path class="st5" d="M726.3,382c0,14.7-1.7,28.8-4.7,42.6l-78.8-7.7c.7-5,1-10.1,1-15.1,0-15.7-3-30.8-9-44.6,0,0,53-18.8,57.3-86.5,21.5,31.8,34.2,69.7,34.2,111.3Z"/>
  </g>
  <path class="st0" d="M23.6,401.9s238.5-190.7,504.9-196.5,506.9,187.8,506.9,187.8c0,0-160.4,203-506.9,206-346.5,2.9-504.9-197.2-504.9-197.2Z"/>
  <path class="st0" d="M23.6,401.9S137,122.2,528.5,122.2s506.9,271,506.9,271c0,0-114.5,294.4-506.9,287.3C114,673,23.6,401.9,23.6,401.9Z"/>
  <path class="st0" d="M23.6,401.9S95,72,528.5,66.7c367.5-4.5,506.9,326.5,506.9,326.5,0,0-114.5,294.4-506.9,287.3C114,673,23.6,401.9,23.6,401.9Z"/>
  <path class="st0" d="M23.6,401.9S67,26,528.5,15.8c431.5-9.6,506.9,377.4,506.9,377.4,0,0-114.5,294.4-506.9,287.3C114,673,23.6,401.9,23.6,401.9Z"/>
  <path class="st1" d="M424.3,179.6s89.4-34.3,221.2,0"/>
</svg>